<svg width="131" height="35" viewBox="0 0 131 35" fill="none" xmlns="http://www.w3.org/2000/svg">
<rect width="120" height="27" transform="translate(0 8)" fill="white"/>
<path d="M1.624 33L2.016 10.32H6.916L9.716 24.628L12.712 10.32H17.444L17.836 33H14.476L14.112 17.628L11.228 33H8.344L5.32 17.516L5.012 33H1.624ZM21.1768 33V10.32H31.0608V13.512H25.7968V19.532H29.8568V22.752H25.7968V29.864H31.1168V33H21.1768ZM33.4541 33V10.32H39.3341C40.8648 10.32 42.1714 10.4973 43.2541 10.852C44.3554 11.188 45.1954 11.7947 45.7741 12.672C46.3714 13.5493 46.6701 14.7627 46.6701 16.312C46.6701 17.2453 46.5861 18.076 46.4181 18.804C46.2688 19.5133 45.9888 20.1387 45.5781 20.68C45.1861 21.2027 44.6261 21.6227 43.8981 21.94L47.0341 33H42.3021L39.6981 22.724H38.0741V33H33.4541ZM38.0741 19.98H39.4181C40.1648 19.98 40.7528 19.8587 41.1821 19.616C41.6114 19.3733 41.9101 19.0093 42.0781 18.524C42.2648 18.02 42.3581 17.404 42.3581 16.676C42.3581 15.6307 42.1621 14.8373 41.7701 14.296C41.3968 13.736 40.6874 13.456 39.6421 13.456H38.0741V19.98ZM55.8869 33.308C54.2069 33.308 52.8722 32.9907 51.8829 32.356C50.9122 31.7213 50.2309 30.844 49.8389 29.724C49.4469 28.5853 49.2509 27.2693 49.2509 25.776V17.628C49.2509 16.06 49.4469 14.716 49.8389 13.596C50.2309 12.4573 50.9122 11.58 51.8829 10.964C52.8722 10.348 54.2069 10.04 55.8869 10.04C57.5109 10.04 58.7802 10.3107 59.6949 10.852C60.6282 11.3933 61.2816 12.1587 61.6549 13.148C62.0469 14.1373 62.2429 15.2853 62.2429 16.592V18.496H57.7629V16.368C57.7629 15.8453 57.7349 15.36 57.6789 14.912C57.6229 14.4453 57.4642 14.072 57.2029 13.792C56.9602 13.4933 56.5309 13.344 55.9149 13.344C55.2989 13.344 54.8509 13.4933 54.5709 13.792C54.2909 14.0907 54.1136 14.4827 54.0389 14.968C53.9642 15.4347 53.9269 15.9573 53.9269 16.536V26.84C53.9269 27.4747 53.9736 28.0347 54.0669 28.52C54.1789 28.9867 54.3749 29.3507 54.6549 29.612C54.9536 29.8547 55.3736 29.976 55.9149 29.976C56.5122 29.976 56.9322 29.836 57.1749 29.556C57.4362 29.2573 57.5949 28.8653 57.6509 28.38C57.7256 27.8947 57.7629 27.3813 57.7629 26.84V24.628H62.2429V26.504C62.2429 27.8293 62.0562 29.0053 61.6829 30.032C61.3096 31.04 60.6656 31.8427 59.7509 32.44C58.8362 33.0187 57.5482 33.308 55.8869 33.308ZM63.9435 33L68.3395 10.32H73.4635L77.8315 33H73.5475L72.7355 28.016H69.1515L68.2835 33H63.9435ZM69.5715 25.188H72.2875L70.9155 16.032L69.5715 25.188ZM81.0274 33V13.764H77.5274V10.32H89.1194V13.764H85.6754V33H81.0274ZM97.5608 33.308C95.8434 33.308 94.5088 33.0187 93.5568 32.44C92.6048 31.8427 91.9328 30.9933 91.5408 29.892C91.1674 28.772 90.9808 27.4187 90.9808 25.832V10.32H95.5448V26.476C95.5448 27.036 95.5821 27.5867 95.6568 28.128C95.7501 28.6693 95.9368 29.108 96.2168 29.444C96.5154 29.78 96.9634 29.948 97.5608 29.948C98.1768 29.948 98.6248 29.78 98.9048 29.444C99.2034 29.108 99.3901 28.6693 99.4648 28.128C99.5394 27.5867 99.5768 27.036 99.5768 26.476V10.32H104.141V25.832C104.141 27.4187 103.945 28.772 103.553 29.892C103.179 30.9933 102.517 31.8427 101.565 32.44C100.613 33.0187 99.2781 33.308 97.5608 33.308ZM113.244 33.308C111.844 33.308 110.678 33.056 109.744 32.552C108.811 32.0293 108.102 31.2547 107.616 30.228C107.15 29.1827 106.879 27.8573 106.804 26.252L110.78 25.58C110.818 26.5133 110.911 27.2973 111.06 27.932C111.228 28.548 111.471 29.0147 111.788 29.332C112.124 29.6307 112.535 29.78 113.02 29.78C113.618 29.78 114.019 29.5933 114.224 29.22C114.448 28.8467 114.56 28.4173 114.56 27.932C114.56 26.98 114.327 26.1867 113.86 25.552C113.412 24.8987 112.815 24.2453 112.068 23.592L109.716 21.548C108.876 20.8387 108.186 20.036 107.644 19.14C107.122 18.244 106.86 17.1427 106.86 15.836C106.86 13.9693 107.402 12.5413 108.484 11.552C109.586 10.544 111.088 10.04 112.992 10.04C114.131 10.04 115.064 10.2267 115.792 10.6C116.52 10.9733 117.08 11.4773 117.472 12.112C117.883 12.728 118.163 13.4093 118.312 14.156C118.48 14.884 118.583 15.612 118.62 16.34L114.672 16.928C114.635 16.2373 114.57 15.6307 114.476 15.108C114.402 14.5853 114.234 14.1747 113.972 13.876C113.73 13.5773 113.356 13.428 112.852 13.428C112.311 13.428 111.91 13.6333 111.648 14.044C111.387 14.436 111.256 14.8747 111.256 15.36C111.256 16.1627 111.434 16.8253 111.788 17.348C112.162 17.852 112.666 18.384 113.3 18.944L115.596 20.96C116.548 21.7813 117.36 22.724 118.032 23.788C118.723 24.8333 119.068 26.1307 119.068 27.68C119.068 28.744 118.826 29.7053 118.34 30.564C117.855 31.4227 117.174 32.0947 116.296 32.58C115.438 33.0653 114.42 33.308 113.244 33.308Z" fill="url(#paint0_linear_79_848)"/>
<rect x="99" y="15" width="6" height="3" fill="white"/>
<rect x="99" y="10" width="5.3" height="5.3" fill="url(#paint1_linear_79_848)"/>
<rect x="81" y="28" width="5" height="5" fill="url(#paint2_linear_79_848)"/>
<rect x="80" y="26" width="6" height="2" fill="white"/>
<defs>
<linearGradient id="paint0_linear_79_848" x1="55" y1="15" x2="55.5" y2="46" gradientUnits="userSpaceOnUse">
<stop stop-color="#1337AB"/>
<stop offset="1" stop-color="#081645"/>
</linearGradient>
<linearGradient id="paint1_linear_79_848" x1="101.65" y1="10" x2="101.65" y2="15.3" gradientUnits="userSpaceOnUse">
<stop stop-color="#FF00E5"/>
<stop offset="1" stop-color="#78036C"/>
</linearGradient>
<linearGradient id="paint2_linear_79_848" x1="83.5" y1="28" x2="83.5" y2="33" gradientUnits="userSpaceOnUse">
<stop stop-color="#FF00E5"/>
<stop offset="1" stop-color="#78036C"/>
</linearGradient>
</defs>
</svg>
